# xmcd
#
# Track frame offsets:
#	182
#	13787
#	27085
#	39795
#	54592
#	67720
#	81305
#	102670
#	116147
#	129620
#	144050
#	164012
#	178010
#	193107
#	208070
#	221510
#
# Disc length: 3089 seconds
#
# Revision: 2
# Processed by: cddbd v1.5.1PL2 Copyright (c) Steve Scherf et al.
# Submitted via: EasyCDDAExtractor 10.0.1.1
#
DISCID=e30c0f10
DTITLE=Adamo - Album
DYEAR=1990
DGENRE=Chanson
TTITLE0=Vous Permettez Monsieur
TTITLE1=Tombe La Neige
TTITLE2=Les Filles Du Bord De Mer
TTITLE3=La Nuit
TTITLE4=Mes Mains Sur Tes Hanches
TTITLE5=Une Mèche De Cheveux
TTITLE6=Inch' Allah
TTITLE7=Le Néon
TTITLE8=Une Larme Aux Nuages
TTITLE9=La Valse D'été
TTITLE10=Pauvre Verlaine
TTITLE11=Le Ruisseau De Mon Enfance
TTITLE12=Petit Bonheur
TTITLE13=Les Belle Dames
TTITLE14=En Blue Jeans Et Blouson De Cuir
TTITLE15=Crier Ton Nom
EXTD=
EXTT0=
EXTT1=
EXTT2=
EXTT3=
EXTT4=
EXTT5=
EXTT6=
EXTT7=
EXTT8=
EXTT9=
EXTT10=
EXTT11=
EXTT12=
EXTT13=
EXTT14=
EXTT15=
PLAYORDER=
